



<svg xmlns="http://www.w3.org/2000/svg" version="1.1" viewBox="0 0 86 95" width="86.0pt" height="95.0pt" xmlns:xlink="http://www.w3.org/1999/xlink" fill="#2e6ca4">
<path fill="none" stroke="none" d="M 0.00 0.00 L 86.00 0.00 L 86.00 95.00 L 0.00 95.00 L 0.00 0.00 Z M 24.03 59.21 C 17.25 61.24 9.89 63.54 5.59 69.60 C 3.61 72.17 3.54 75.69 4.39 78.69 C 6.34 83.20 11.31 86.48 15.68 88.37 C 27.88 93.49 40.03 93.42 53.00 92.80 C 61.40 91.68 70.01 90.02 77.04 84.99 C 80.62 82.55 83.60 78.41 83.04 73.88 C 82.84 70.79 80.11 67.99 77.87 66.08 C 73.35 62.56 67.41 60.49 61.87 59.22 C 63.57 54.52 66.17 50.92 64.50 45.70 C 60.53 47.22 61.34 51.24 59.57 54.60 C 57.08 59.56 52.51 64.64 46.63 65.09 C 46.08 58.81 45.36 53.08 48.16 47.15 C 51.66 39.87 55.03 32.77 62.00 28.22 C 57.96 34.11 54.69 40.07 52.31 46.83 C 56.15 45.16 59.72 43.78 62.60 40.58 C 67.05 35.74 68.85 29.79 68.58 23.27 C 65.09 22.59 62.02 22.79 58.55 23.46 C 53.69 16.00 49.01 7.52 43.02 0.90 C 38.84 5.01 35.86 9.84 32.67 14.71 C 27.39 23.03 21.89 32.20 20.01 41.98 C 19.09 47.68 21.60 54.13 24.03 59.21 Z" id="p0" />
<path fill="#2e6ca4" fill-opacity="0.1" stroke="#2e6ca4" d="M 43.02 0.90 C 49.01 7.52 53.69 16.00 58.55 23.46 C 62.02 22.79 65.09 22.59 68.58 23.27 C 68.85 29.79 67.05 35.74 62.60 40.58 C 59.72 43.78 56.15 45.16 52.31 46.83 C 54.69 40.07 57.96 34.11 62.00 28.22 C 55.03 32.77 51.66 39.87 48.16 47.15 C 45.36 53.08 46.08 58.81 46.63 65.09 C 52.51 64.64 57.08 59.56 59.57 54.60 C 61.34 51.24 60.53 47.22 64.50 45.70 C 66.17 50.92 63.57 54.52 61.87 59.22 C 67.41 60.49 73.35 62.56 77.87 66.08 C 80.11 67.99 82.84 70.79 83.04 73.88 C 83.60 78.41 80.62 82.55 77.04 84.99 C 70.01 90.02 61.40 91.68 53.00 92.80 C 40.03 93.42 27.88 93.49 15.68 88.37 C 11.31 86.48 6.34 83.20 4.39 78.69 C 3.54 75.69 3.61 72.17 5.59 69.60 C 9.89 63.54 17.25 61.24 24.03 59.21 C 21.60 54.13 19.09 47.68 20.01 41.98 C 21.89 32.20 27.39 23.03 32.67 14.71 C 35.86 9.84 38.84 5.01 43.02 0.90 Z M 43.71 65.78 C 43.32 65.22 42.93 64.67 42.54 64.11 C 42.52 61.76 42.51 59.42 42.48 57.08 C 32.10 53.67 25.89 42.69 28.83 32.06 C 37.51 32.15 42.44 38.69 45.14 46.19 C 46.02 38.07 48.03 30.54 54.99 25.57 C 51.56 19.02 47.40 12.80 42.95 6.90 C 35.83 16.73 28.62 27.36 24.72 38.93 C 22.49 45.14 24.25 51.14 27.30 56.68 C 30.48 62.57 36.94 66.43 43.71 65.78 Z M 57.43 63.17 C 60.68 64.50 64.63 65.36 67.44 67.50 C 69.03 68.68 69.06 71.40 69.58 73.17 C 67.58 75.10 65.84 77.11 63.17 78.11 C 56.66 80.53 49.88 81.05 43.00 80.90 C 36.69 81.05 30.49 80.41 24.46 78.49 C 22.34 77.74 19.68 76.58 18.46 74.60 C 17.81 72.89 17.80 70.91 17.55 69.11 C 20.75 66.33 24.44 64.92 28.33 63.46 C 21.86 63.53 15.40 66.40 10.22 70.13 C 7.31 72.31 6.85 76.18 9.09 79.04 C 11.98 82.50 16.97 84.55 21.19 85.86 C 35.44 90.02 50.74 90.05 65.03 86.05 C 69.91 84.56 74.41 82.79 77.79 78.79 C 80.43 76.19 78.93 71.66 76.14 69.78 C 70.77 65.83 64.09 63.47 57.43 63.17 Z M 21.97 71.78 C 30.17 75.64 40.11 76.27 49.04 75.65 C 54.46 75.11 59.74 74.28 64.67 71.82 C 61.09 69.34 57.10 68.73 52.96 67.78 C 46.81 70.72 39.22 70.55 33.00 67.90 C 29.05 68.51 25.36 69.63 21.97 71.78 Z" id="p1" />
<path stroke="none" d="M 42.95 6.90 C 47.40 12.80 51.56 19.02 54.99 25.57 C 48.03 30.54 46.02 38.07 45.14 46.19 C 42.44 38.69 37.51 32.15 28.83 32.06 C 25.89 42.69 32.10 53.67 42.48 57.08 C 42.51 59.42 42.52 61.76 42.54 64.11 C 42.93 64.67 43.32 65.22 43.71 65.78 C 36.94 66.43 30.48 62.57 27.30 56.68 C 24.25 51.14 22.49 45.14 24.72 38.93 C 28.62 27.36 35.83 16.73 42.95 6.90 Z" id="p2" />
<path stroke="none" d="M 28.33 63.46 C 24.44 64.92 20.75 66.33 17.55 69.11 C 17.80 70.91 17.81 72.89 18.46 74.60 C 19.68 76.58 22.34 77.74 24.46 78.49 C 30.49 80.41 36.69 81.05 43.00 80.90 C 49.88 81.05 56.66 80.53 63.17 78.11 C 65.84 77.11 67.58 75.10 69.58 73.17 C 69.06 71.40 69.03 68.68 67.44 67.50 C 64.63 65.36 60.68 64.50 57.43 63.17 C 64.09 63.47 70.77 65.83 76.14 69.78 C 78.93 71.66 80.43 76.19 77.79 78.79 C 74.41 82.79 69.91 84.56 65.03 86.05 C 50.74 90.05 35.44 90.02 21.19 85.86 C 16.97 84.55 11.98 82.50 9.09 79.04 C 6.85 76.18 7.31 72.31 10.22 70.13 C 15.40 66.40 21.86 63.53 28.33 63.46 Z" id="p3" />
<path stroke="none" d="M 33.00 67.90 C 39.22 70.55 46.81 70.72 52.96 67.78 C 57.10 68.73 61.09 69.34 64.67 71.82 C 59.74 74.28 54.46 75.11 49.04 75.65 C 40.11 76.27 30.17 75.64 21.97 71.78 C 25.36 69.63 29.05 68.51 33.00 67.90 Z" id="p4" />
</svg>